PathFileType	4	(X/Y/Z)	Patient4_TMGait_0pt6_01_right_02.trc.trc
DataRate	CameraRate	NumFrames	NumMarkers	Units	OrigDataRate	OrigDataStartFrame	OrigNumFrames
82.840236686391	82.840236686391	5	33	mm	82.840236686391	89	       141
Frame#	Time	Sacral			L.Shoulder			Chest			R.Shoulder			Neck			R.ASIS			L.ASIS			R.Thigh.Superior			R.Thigh.Lateral			R.Thigh.Inferior			R.Patella			L.Thigh.Superior			L.Thigh.Lateral			L.Thigh.Inferior			L.Patella			L.Shank.Superior			L.Shank.Lateral			L.Shank.Inferior			R.Shank.Superior			R.Shank.Lateral			R.Shank.Inferior			R.Heel			R.Midfoot.Superior			R.Midfoot.Lateral			R.Toe			L.Heel			L.Midfoot.Lateral			L.Midfoot.Superior			L.Toe			L.Elbow			L.Wrist			R.Elbow			R.Wrist			
		X1	Y1	Z1	X2	Y2	Z2	X3	Y3	Z3	X4	Y4	Z4	X5	Y5	Z5	X6	Y6	Z6	X7	Y7	Z7	X8	Y8	Z8	X9	Y9	Z9	X10	Y10	Z10	X11	Y11	Z11	X12	Y12	Z12	X13	Y13	Z13	X14	Y14	Z14	X15	Y15	Z15	X16	Y16	Z16	X17	Y17	Z17	X18	Y18	Z18	X19	Y19	Z19	X20	Y20	Z20	X21	Y21	Z21	X22	Y22	Z22	X23	Y23	Z23	X24	Y24	Z24	X25	Y25	Z25	X26	Y26	Z26	X27	Y27	Z27	X28	Y28	Z28	X29	Y29	Z29	X30	Y30	Z30	X31	Y31	Z31	X32	Y32	Z32	X33	Y33	Z33	

89	2.862285714286	615.069002423628	1003.146512095922	445.668291716774	750.613786815045	1430.748459439132	252.425268157879	875.714107526380	1366.457236028600	398.925370994883	812.875980290649	1438.854155499372	581.017035410874	751.445786569923	1491.730355133233	407.009995388577	846.277295647065	934.969509427564	547.137960038868	818.420395328774	961.085006124856	274.653868077448	865.975596400940	724.712191306475	524.557524201815	775.788951234737	621.040751701089	586.770040444768	850.818553803201	557.218539223261	512.182161117898	833.185474037110	449.727394406382	528.564953819374	886.213752207205	762.315871624274	299.925703440556	806.727039058840	637.206735939532	246.558099743564	904.131689310638	569.213981716883	302.158944100554	912.495823443974	499.849706899958	311.295623090568	892.915005739898	425.768556831019	306.552310661159	812.156580709527	301.524502069112	264.557010446033	881.941030246318	198.383392576819	333.041572059443	755.701449078578	384.923029795393	531.185179355896	636.402767116645	340.724322895217	591.420485529431	623.539708967242	234.586982817509	535.314753460236	420.726002220388	156.848756909029	503.301374828465	595.301247340432	121.959879203799	544.594388686668	486.287331482472	105.302890278138	576.300833665594	673.707506826167	31.248897988380	570.934576758551	770.998313323534	38.035539762186	386.896100341619	840.422043921581	34.521501226292	301.646268874561	923.424516116037	97.821639147878	322.354469909288	1050.727747050457	49.284672191006	289.205690787423	687.585995488465	1073.510476819886	160.300197305995	749.092328719328	820.779232509582	155.297610395231	904.273505471243	1098.628671981526	684.973736643218	1129.867322191861	1020.867261853897	591.056267376043	
90	2.874357142857	614.615577287223	1003.872701640712	442.957010735138	753.029780283426	1431.426532081784	249.718056196949	876.331770279045	1367.461655705901	397.803472415929	811.365015988449	1439.986332084945	579.091099267682	751.879003497286	1492.582534058176	404.321405466895	845.451567451996	935.935150144154	546.281489569873	819.247077250507	961.868078565927	273.627139948991	870.558864551374	727.149532311718	524.316437270819	782.877305858913	621.745479097745	586.272649523245	860.179129014777	559.065373051496	512.331443291136	843.711051150595	450.321644000225	529.242917372937	884.786898383966	761.264250798438	297.581137629261	803.383133421451	637.292187092751	245.389783888124	899.876760933976	568.270225693561	301.082546400604	907.381685782513	499.202347092250	310.590704973443	887.618099878111	425.333622070255	305.852596803160	806.360093567593	301.436806694775	264.037340858023	875.346516458639	198.073212419655	332.824617310267	764.436121528369	386.284214581838	531.377254084885	643.461463367054	345.955825955457	591.178654453349	627.566695111356	240.145522333418	535.486750423574	422.722518268973	170.720450106192	503.241388512651	595.370962711505	127.290062757325	544.438979153378	485.696604416732	115.647383568611	576.078487775491	669.424197805789	31.200260769026	570.728819146337	763.660775649428	37.998853955733	386.789539309357	833.090716947087	34.438407669977	301.554176968062	916.193379470494	97.589855458857	322.348852339861	1043.474640718888	48.955249855473	289.164900158877	695.526821130739	1073.492650937377	155.412397543356	768.468273412799	823.495518798114	151.463601367467	895.612576117133	1097.785424835788	684.244436917148	1117.810947926654	1005.663196400131	593.652661962097	
91	2.886428571429	613.965625687036	1004.437720946395	440.406001902375	755.424079505307	1431.938238745388	247.173285945384	876.895558850244	1368.288756118020	396.846412850023	809.806337027577	1440.903829005037	577.327949965592	752.287927797313	1493.271383256652	401.814111902963	844.437830562552	936.711772949434	545.453448084538	819.858190563041	962.539510389320	272.641852432425	875.079995959232	729.731906555341	523.953400293469	790.137135130034	622.621881548954	585.798176912386	869.539944853222	561.233209902664	512.324088707403	854.452490583227	451.322172385735	529.657409243586	883.174289465665	760.216172018362	295.760035480055	800.244977401485	637.404701596754	244.285831474091	895.638587513536	567.385084386428	300.415953495244	902.261448125356	498.553855574851	310.187054419410	882.339765022825	424.902712743642	305.369471131078	800.694595034023	301.347372781323	263.604535830274	868.803021528771	197.761378760835	332.732824118413	773.557911561384	387.897312398826	531.427144046294	651.141014393185	351.222565966558	590.873765123080	632.321659426930	245.839922309940	535.528597780044	425.843848955378	184.253071111814	503.188652610174	596.408709842717	132.991080111655	544.157039957552	486.325939648123	125.978212519965	575.808513180319	666.332771391939	31.721427054416	570.301463112321	756.347757183651	37.969793997124	386.695004541918	825.782800854619	34.369476552762	301.481018877485	909.003242630457	97.355208813058	322.380540455273	1036.252006571866	48.581363460567	289.139263030443	703.653390945336	1073.491679773538	150.400974868278	788.554859997203	826.926002965997	147.959882213083	886.650524668752	1096.765415804798	683.538088339843	1104.557535214682	990.282767580040	596.919386338759	
92	2.898500000000	613.142798369646	1004.897575553029	438.009266221513	757.739653318204	1432.321306061512	244.833022323965	877.397863965924	1368.965010356291	396.049628652469	808.251909278797	1441.631989834642	575.742798993962	752.679811761185	1493.826242968764	399.525496329744	843.233168478366	937.349484037926	544.602885938612	820.285372689026	963.132493021198	271.665725625777	879.415332320069	732.486107092777	523.382421241103	797.461962598073	623.722329822345	585.316193117794	878.752679154422	563.769313624962	512.104118832902	865.310061824947	452.779699745238	529.802549486692	881.451172472172	759.227823214506	294.463533775790	797.332474779598	637.550036409172	243.258790102528	891.467988067854	566.566002044757	300.112098839061	897.195859212464	497.914645081318	310.067684255169	877.125064014403	424.483088453078	305.096664839012	795.177591492537	301.275202236952	263.243825067477	862.319325978723	197.455474558881	332.757357872280	782.992766358978	389.793504437666	531.334126992891	659.375684272952	356.447497681872	590.500662754691	637.846269359641	251.548948459381	535.451573453835	430.112390853299	197.061727409908	503.155045706583	598.587214712835	138.885714310535	543.783114790451	488.300439971450	135.962134432948	575.499207230923	664.716136704352	32.893789685694	569.642019874113	749.056834031662	37.948530786165	386.609200477371	818.495153088127	34.317374120788	301.422681562157	901.841575336275	97.132201519659	322.440863314832	1029.049981580998	48.196175486053	289.122876465054	711.994575354523	1073.551832589393	145.315820664631	809.259282140077	831.213514239926	144.853519105155	877.421525957485	1095.614274168597	682.867509161315	1090.056920761462	974.789238215593	600.905310743816	
93	2.910571428571	612.174509807033	1005.314406111617	435.749317356194	759.927750455093	1432.624180020723	242.728394185225	877.831946370739	1369.525318063783	395.403537398715	806.742672197116	1442.204779103996	574.343207493463	753.061582781983	1494.284210430932	397.479526141662	841.840361252605	937.911151409004	543.694267202250	820.572516846872	963.680350379735	270.681894670651	883.467077511277	735.439965312296	522.548107910545	804.754762103198	625.093334931618	584.803131526529	887.698709616444	566.710223904698	511.641563043829	876.194488368727	454.735595152675	529.687553689516	879.678398019827	758.328350480396	293.644415536401	794.621009350309	637.721910816987	242.323884247114	887.385171545624	565.808710850553	300.102366990494	892.217413699865	497.290361117355	310.195127232020	871.993331598438	424.079612075657	305.014300875238	789.798783175174	301.232817182164	262.940360470692	855.890180256609	197.161399706314	332.882271094083	792.679658395368	391.994534646314	531.105312329772	668.105357882776	361.543632943853	590.060586617569	644.184417939037	257.136520942820	535.272424281011	435.538018693646	208.775483877608	503.140068400776	602.062460226230	144.764582000156	543.353385639557	491.721583842413	145.272495197814	575.162823869734	664.844698328985	34.718726112815	568.786158944588	741.781517940608	37.934317037540	386.529861385349	811.221339568101	34.282251239346	301.375865970356	894.693725543874	96.931794595127	322.521418612689	1021.856955505972	47.826177767312	289.112310045482	720.557664152397	1073.734626072188	140.214963398085	830.471766195619	836.524614296740	142.217741530976	867.967001520849	1094.398058230158	682.243427218568	1074.270163854607	959.280641159335	605.639009282578	
